<svg width="8" height="16" viewBox="0 0 8 16" fill="none" xmlns="http://www.w3.org/2000/svg">
<path fill-rule="evenodd" clip-rule="evenodd" d="M5.26272 0.0284933C4.39678 0.170191 3.78853 0.477234 3.28953 1.02451C2.86942 1.48529 2.60727 2.0259 2.45892 2.73733C2.4029 3.00606 2.39574 3.16846 2.38416 4.43426L2.37135 5.83404H1.18568H0V7.2569V8.67979L1.18035 8.68795L2.36071 8.69615L2.36835 12.3481L2.37598 16H3.78928H5.20258V12.3403V8.68051H6.37541C7.02047 8.68051 7.54873 8.67697 7.54933 8.67269C7.62806 8.10302 7.89586 5.8738 7.8875 5.8575C7.88091 5.84458 7.2732 5.83404 6.53705 5.83404H5.19864L5.20874 4.66886C5.21867 3.52927 5.22044 3.49962 5.28997 3.31854C5.43083 2.95172 5.72723 2.73499 6.16975 2.67524C6.29115 2.65885 6.75261 2.64499 7.19522 2.64446L8 2.64349L7.99215 1.36884L7.9843 0.0941811L7.59336 0.0572395C6.95236 -0.00334961 5.5621 -0.020491 5.26272 0.0284933Z" fill="#1B458F"/>
</svg>
