<svg width="72" height="47" viewBox="0 0 72 47" fill="none" xmlns="http://www.w3.org/2000/svg">
<path fill-rule="evenodd" clip-rule="evenodd" d="M53.502 0.0432629C48.3071 0.578242 45.2515 1.3354 42.0934 2.87056C40.1096 3.83507 38.7646 4.76061 37.2444 6.20772C35.2027 8.15114 33.6759 10.779 32.9397 13.6164C32.4528 15.4926 32.3294 18.6919 32.6725 20.5447C32.9734 22.1702 33.6233 24.0388 34.3133 25.2628C34.6157 25.7995 34.8633 26.2765 34.8633 26.3229C34.8633 26.3694 34.4881 27.378 34.0297 28.5641C33.5711 29.7504 32.9686 31.5209 32.6907 32.4985C32.4128 33.4761 32.1498 34.3723 32.1062 34.49C32.0487 34.6452 31.8223 34.4713 31.282 33.8568L30.5373 33.0095L30.8597 32.0478C31.5839 29.8878 31.6681 26.8613 31.0638 24.7151C29.8669 20.4647 26.8142 17.4342 22.1552 15.8712C20.1691 15.2049 18.449 14.9326 15.662 14.8435C11.0227 14.695 6.34135 15.5127 1.91237 17.2454C0.554494 17.7766 0.134456 18.1284 0.0250151 18.826C-0.0896303 19.556 0.151758 19.8786 1.5517 20.8675C3.68439 22.374 5.27972 24.2635 6.37159 26.576C6.63253 27.1286 7.20492 28.766 7.64352 30.2149C8.83372 34.1454 9.59503 35.5746 11.4035 37.2732C13.5371 39.2771 15.99 40.2141 19.0927 40.2104C22.4211 40.2064 25.3797 39.0213 27.7698 36.7347L28.9288 35.626L29.5554 36.3779C31.8727 39.1585 34.049 42.8951 35.0936 45.8868L35.4823 47L36.8608 46.6493C37.7901 46.4129 38.2394 46.233 38.2394 46.0974C38.2394 45.9867 37.9486 45.1438 37.5933 44.2244C36.9247 42.4947 35.9346 40.5055 34.9616 38.9369L34.4006 38.0326L34.5806 37.0105C34.9268 35.0447 36.4886 29.8503 36.966 29.0767C37.0682 28.9113 37.2056 28.9755 37.6784 29.4088C38.9047 30.5327 40.9323 31.6974 42.8099 32.3566C49.6358 34.7531 56.9214 32.4989 60.5373 26.8714C61.9002 24.7503 62.3378 23.4553 63.283 18.7466C63.9536 15.4058 64.4425 13.8139 65.3611 11.9819C66.6389 9.43316 67.9724 7.81295 71.2092 4.87563C71.7936 4.34522 72 4.0591 72 3.77899C72 3.20362 71.7696 2.70845 71.3819 2.45088C70.5483 1.89664 65.6112 0.730502 62.2938 0.304116C60.6315 0.0904957 54.7409 -0.0843102 53.502 0.0432629ZM62.4345 3.30537C63.9135 3.5167 66.488 4.00217 67.1278 4.19024C67.3523 4.25631 67.2902 4.37261 66.6944 5.00163C65.6076 6.14936 64.7846 7.2022 63.9453 8.51874C62.126 11.3724 61.4338 13.2689 60.455 18.0796C59.4033 23.249 58.7243 24.8822 56.7934 26.8863C53.4069 30.4009 48.0087 31.3194 42.9093 29.2485C41.7605 28.7819 39.789 27.4569 38.9627 26.5959L38.3497 25.9572L39.0236 24.694C42.9585 17.3193 48.9961 12.2398 56.1281 10.3036C56.8313 10.1127 57.4251 9.93774 57.4478 9.91491C57.4703 9.89193 57.3558 9.24493 57.1933 8.47678L56.8977 7.08033L56.4659 7.17508C51.5885 8.24447 46.7748 10.8776 42.8758 14.6086C41.0663 16.3404 38.6261 19.5186 37.0409 22.2082L36.4999 23.126L36.2341 22.4936C34.9647 19.4726 35.1466 14.9446 36.6606 11.8722C39.1599 6.80064 44.5532 3.92454 53.2206 3.04109C54.5695 2.90352 60.8919 3.0849 62.4345 3.30537ZM17.9867 17.9425C24.588 18.7635 28.5354 22.5842 28.5323 28.149C28.5319 28.9289 28.4658 29.807 28.3855 30.1006L28.2393 30.6344L26.8125 29.417C23.2874 26.4095 19.3233 23.9592 14.8411 22.0171C12.563 21.03 12.7843 20.9887 12.2302 22.5055C11.9562 23.2557 11.8079 23.8578 11.8799 23.9287C11.9484 23.9963 12.511 24.2536 13.1299 24.5005C17.4821 26.2366 22.6829 29.5225 26.0011 32.6328L26.9155 33.4897L25.836 34.5402C24.64 35.7041 23.106 36.5737 21.4997 36.9984C20.4145 37.2852 17.9681 37.3241 16.928 37.0711C15.5738 36.7416 14.2104 35.9527 13.1682 34.8954C11.957 33.6668 11.2456 32.2132 10.3867 29.2127C9.29034 25.3829 8.04176 23.0462 5.8348 20.6935C4.84842 19.6421 4.65796 19.372 4.86024 19.3119C5.68794 19.0662 7.91009 18.5013 8.62849 18.354C11.1408 17.8389 15.5829 17.6435 17.9867 17.9425Z" fill="#1BB7AD"/>
</svg>
