<svg width="23" height="26" viewBox="0 0 23 26" fill="none" xmlns="http://www.w3.org/2000/svg">
<path fill-rule="evenodd" clip-rule="evenodd" d="M10.7843 0.0150673C9.13904 0.216387 7.76122 0.884167 6.61724 2.03472C5.60127 3.05651 5.01551 4.14715 4.71674 5.57331C4.59113 6.17265 4.59113 7.51461 4.71674 8.11395C5.01581 9.54163 5.60322 10.6346 6.61724 11.6502C7.64686 12.6814 8.77208 13.2856 10.2219 13.5857C10.8178 13.709 12.167 13.7089 12.7904 13.5855C14.17 13.3123 15.3131 12.7038 16.3383 11.6967C17.368 10.6854 17.9812 9.5557 18.2833 8.11395C18.4089 7.51466 18.4089 6.17265 18.2833 5.57331C18.0868 4.63582 17.7227 3.76392 17.2011 2.98187C16.8792 2.49935 15.8805 1.50322 15.4067 1.19209C14.5826 0.650988 13.6941 0.279446 12.818 0.10963C12.406 0.0297522 11.1439 -0.0289364 10.7843 0.0150673ZM12.7285 1.65276C13.7397 1.91475 14.592 2.39046 15.2862 3.08039C15.9765 3.76652 16.4432 4.58968 16.7276 5.62255C16.8798 6.17559 16.8798 7.51166 16.7276 8.06471C16.4432 9.09758 15.9765 9.92074 15.2862 10.6069C14.5959 11.2929 13.7677 11.7569 12.7285 12.0395C12.1721 12.1908 10.8279 12.1908 10.2715 12.0395C9.23228 11.7569 8.40409 11.2929 7.71378 10.6069C5.73793 8.64296 5.61058 5.52565 7.41905 3.39025C8.20211 2.46561 9.48698 1.74661 10.682 1.5644C11.1846 1.48777 12.273 1.53477 12.7285 1.65276ZM8.75285 15.3078C5.89314 15.6522 3.31101 17.2667 1.6486 19.75C0.674089 21.2057 0.115212 22.9194 0.0159825 24.7559C-0.0143334 25.3174 -0.00814751 25.3836 0.0931272 25.5809C0.166438 25.7238 0.270575 25.8295 0.404977 25.8977C0.605329 25.9993 0.683343 26 11.5 26C22.3167 26 22.3947 25.9993 22.595 25.8977C22.7294 25.8295 22.8336 25.7238 22.9069 25.5809C23.0081 25.3836 23.0143 25.3174 22.984 24.7559C22.8487 22.2515 21.8878 20.0553 20.1412 18.2581C18.4859 16.5549 16.3464 15.5156 14.0124 15.281C13.2367 15.203 9.46352 15.2222 8.75285 15.3078ZM13.9262 16.8051C17.3173 17.1912 20.1577 19.5639 21.1081 22.804C21.2592 23.3194 21.4179 24.1138 21.4179 24.3552V24.4756H11.5H1.58214V24.3258C1.58214 24.0543 1.7898 23.0999 1.96275 22.5763C2.52009 20.8892 3.5811 19.435 5.04541 18.3512C5.56559 17.9662 6.72245 17.3784 7.3846 17.1627C7.88898 16.9984 8.48916 16.8682 9.02948 16.8058C9.55063 16.7455 13.3988 16.745 13.9262 16.8051Z" fill="#1B458F"/>
</svg>
