<svg width="27" height="26" viewBox="0 0 27 26" fill="none" xmlns="http://www.w3.org/2000/svg">
<path fill-rule="evenodd" clip-rule="evenodd" d="M9.74473 0.0455585C6.27805 0.422299 3.31023 2.24087 1.53567 5.0757C0.807476 6.23898 0.355929 7.42808 0.0964394 8.86614C-0.0418602 9.63234 -0.0291867 11.4079 0.120149 12.1946C0.754775 15.5376 2.80118 18.2323 5.86146 19.7547C7.49861 20.5692 8.98057 20.9127 10.851 20.9114C13.1291 20.9099 14.9969 20.3673 16.8956 19.1558L17.5275 18.7525L21.1993 22.2794C23.6759 24.6583 24.9398 25.8374 25.0823 25.902C25.3684 26.0318 25.9626 26.0328 26.2176 25.9041C26.8529 25.5832 27.1441 24.9245 26.9307 24.2909C26.8433 24.0313 26.645 23.8303 23.1454 20.4534L19.4522 16.8898L19.8601 16.3092C21.8191 13.521 22.2494 10.0353 21.0332 6.80457C20.6347 5.74569 19.8739 4.5154 19.05 3.59732C17.6781 2.06864 15.7363 0.88767 13.7464 0.371806C12.5289 0.0561859 10.8821 -0.0780556 9.74473 0.0455585ZM11.6319 2.63815C13.6405 2.84994 15.2075 3.56798 16.6103 4.91949C18.0411 6.29781 18.8022 7.86213 18.9921 9.81489C19.1619 11.5605 18.6762 13.3387 17.6053 14.892C17.1606 15.537 16.1174 16.5415 15.4476 16.9697C12.739 18.7012 9.41141 18.7923 6.65831 17.2103C4.67163 16.0686 3.274 14.1474 2.8147 11.9265C2.64667 11.1139 2.64667 9.81748 2.8147 9.00491C3.28837 6.71467 4.75321 4.761 6.86346 3.60504C8.27381 2.83255 10.0532 2.47172 11.6319 2.63815Z" fill="#1B458F"/>
</svg>
