<svg width="30" height="26" viewBox="0 0 30 26" fill="none" xmlns="http://www.w3.org/2000/svg">
<path fill-rule="evenodd" clip-rule="evenodd" d="M9.34241 0.0730616C9.24302 0.11522 9.11116 0.21283 9.04939 0.28996C8.98768 0.367147 7.98777 2.17952 6.8274 4.31752L4.71765 8.20481L3.0643 8.20589C1.14636 8.20715 0.970839 8.24075 0.502767 8.69639C0.0591904 9.12819 0 9.37179 0 10.7659C0 12.2588 0.0430156 12.4344 0.520289 12.8894C0.785239 13.142 0.928293 13.2293 1.21428 13.3126C1.48017 13.3902 1.58243 13.4488 1.60459 13.5364C1.62105 13.6017 2.28463 16.2865 3.07913 19.5026C3.87363 22.7187 4.55778 25.4297 4.59939 25.5269C4.64099 25.6243 4.76377 25.7655 4.87219 25.8407L5.06927 25.9776L14.9342 25.9923C25.8236 26.0086 25.0466 26.0335 25.3203 25.6594C25.4018 25.5481 25.9022 23.6256 26.933 19.465C27.755 16.1469 28.4332 13.4276 28.44 13.4222C28.4468 13.4168 28.6081 13.3688 28.7983 13.3157C29.0778 13.2376 29.2092 13.1558 29.4827 12.8895C29.979 12.4064 30.0184 12.2357 29.9949 10.6745C29.9735 9.25924 29.9323 9.09916 29.4793 8.67118C29.0251 8.24223 28.8333 8.20703 26.9411 8.20641L25.2878 8.20578L23.1487 4.26418C20.8412 0.0121342 20.8737 0.0618802 20.3704 0.00665723C19.8461 -0.0508476 19.3352 0.448897 19.417 0.939172C19.4351 1.04819 20.3086 2.7156 21.3579 4.64453C22.4074 6.57345 23.2659 8.16408 23.2659 8.17931C23.2659 8.19454 19.5475 8.20698 15.0027 8.20698C10.4579 8.20698 6.7395 8.19163 6.7395 8.17292C6.7395 8.15415 7.60122 6.55611 8.65445 4.62165C10.3881 1.43755 10.5695 1.07877 10.5703 0.833232C10.5725 0.230572 9.92154 -0.172361 9.34241 0.0730616ZM28.2473 10.8027V11.6869H15.0027H1.75813V10.8027V9.91843H15.0027H28.2473V10.8027ZM7.79438 13.4322C7.79438 13.4986 8.32123 17.595 8.35317 17.7769L8.38575 17.9623H6.4531C4.66338 17.9623 4.51816 17.9549 4.48938 17.8624C4.44438 17.7178 3.39905 13.4687 3.39905 13.4305C3.39905 13.4128 4.388 13.3984 5.59671 13.3984C6.80543 13.3984 7.79438 13.4136 7.79438 13.4322ZM14.1236 15.6803V17.9623H12.1311C10.7288 17.9623 10.1385 17.9438 10.1385 17.8999C10.1385 17.8146 9.62002 13.7512 9.58415 13.5553L9.55544 13.3984H11.8395H14.1236V15.6803ZM20.4213 13.5553C20.3854 13.7512 19.8669 17.8146 19.8669 17.8999C19.8669 17.9438 19.2767 17.9623 17.8743 17.9623H15.8818V15.6803V13.3984H18.1659H20.45L20.4213 13.5553ZM26.6064 13.4323C26.6064 13.4699 25.5636 17.7042 25.5154 17.8624C25.4873 17.9549 25.3423 17.9623 23.5523 17.9623H21.6197L21.6522 17.7769C21.6842 17.595 22.211 13.4986 22.211 13.4322C22.211 13.4136 23.2 13.3984 24.4087 13.3984C25.6174 13.3984 26.6064 13.4136 26.6064 13.4323ZM8.58636 19.745C8.60089 19.7843 8.73152 20.7534 8.87662 21.8986C9.02173 23.0439 9.15353 24.0519 9.16941 24.1387L9.19836 24.2965L7.63292 24.2813L6.06754 24.2661L5.52826 22.0983C5.23173 20.906 4.98729 19.8727 4.98518 19.8021L4.98137 19.6737H6.77062C8.14887 19.6737 8.56596 19.6901 8.58636 19.745ZM14.1236 21.9842V24.2946H12.5413C11.6711 24.2946 10.959 24.2794 10.959 24.2608C10.959 24.203 10.4337 20.1138 10.3972 19.8876L10.3627 19.6737H12.2431H14.1236V21.9842ZM19.6325 19.7075C19.6325 19.7654 19.1071 23.8545 19.0706 24.0807L19.0361 24.2946H17.4589H15.8818V21.9842V19.6737H17.7571C18.7885 19.6737 19.6325 19.6889 19.6325 19.7075ZM25.0229 19.7736C25.0223 19.8284 24.7766 20.8618 24.4769 22.0698L23.932 24.2661L22.3695 24.2813L20.8071 24.2965L20.836 24.1387C20.8519 24.0519 20.9837 23.0439 21.1288 21.8986C21.2739 20.7534 21.4045 19.7843 21.4191 19.745C21.4395 19.6901 21.8565 19.6737 23.2348 19.6737C24.9002 19.6737 25.024 19.6806 25.0229 19.7736Z" fill="#1B458F"/>
</svg>
