<svg width="18" height="16" viewBox="0 0 18 16" fill="none" xmlns="http://www.w3.org/2000/svg">
<path opacity="0.6" fill-rule="evenodd" clip-rule="evenodd" d="M5.60545 0.044961C5.54581 0.0709049 5.46669 0.130973 5.42963 0.178437C5.39261 0.225936 4.79266 1.34124 4.09644 2.65694L2.83059 5.04911L1.83858 5.04978C0.687815 5.05055 0.582504 5.07123 0.30166 5.35163C0.0355143 5.61735 0 5.76726 0 6.6252C0 7.54387 0.0258094 7.65193 0.312174 7.93194C0.471144 8.08739 0.556976 8.1411 0.728569 8.1924C0.888102 8.24011 0.94946 8.2762 0.962752 8.33012C0.972633 8.37028 1.37078 10.0224 1.84748 12.0016C2.32418 13.9807 2.73467 15.649 2.75963 15.7089C2.7846 15.7688 2.85826 15.8557 2.92331 15.902L3.04156 15.9862L8.96052 15.9953C15.4942 16.0053 15.028 16.0206 15.1922 15.7904C15.2411 15.7219 15.5413 14.5389 16.1598 11.9784C16.653 9.93653 17.0599 8.26314 17.064 8.2598C17.0681 8.25646 17.1648 8.22698 17.279 8.19426C17.4467 8.14619 17.5255 8.09585 17.6896 7.93201C17.9874 7.63469 18.0111 7.52965 17.9969 6.56892C17.9841 5.69799 17.9594 5.59948 17.6876 5.33611C17.4151 5.07214 17.3 5.05048 16.1647 5.0501L15.1727 5.04971L13.8892 2.62411C12.5047 0.0074672 12.5242 0.0380801 12.2222 0.00409676C11.9077 -0.0312908 11.6011 0.276244 11.6502 0.577952C11.6611 0.645041 12.1851 1.67114 12.8148 2.85817C13.4444 4.0452 13.9596 5.02405 13.9596 5.03342C13.9596 5.04279 11.7285 5.05045 9.00163 5.05045C6.27477 5.05045 4.0437 5.041 4.0437 5.02949C4.0437 5.01794 4.56073 4.03453 5.19267 2.84409C6.23285 0.884644 6.34171 0.663858 6.34221 0.512758C6.34347 0.141891 5.95292 -0.106068 5.60545 0.044961ZM16.9484 6.6478V7.19196H9.00163H1.05488V6.6478V6.10365H9.00163H16.9484V6.6478ZM4.67663 8.26598C4.67663 8.30684 4.99274 10.8277 5.0119 10.9396L5.03145 11.0537H3.87186C2.79803 11.0537 2.7109 11.0492 2.69363 10.9923C2.66663 10.9033 2.03943 8.28845 2.03943 8.26493C2.03943 8.25404 2.6328 8.24516 3.35803 8.24516C4.08326 8.24516 4.67663 8.25453 4.67663 8.26598ZM8.47419 9.64943V11.0537H7.27866C6.43725 11.0537 6.08313 11.0423 6.08313 11.0153C6.08313 10.9628 5.77201 8.46226 5.75049 8.3417L5.73326 8.24516H7.10372H8.47419V9.64943ZM12.2528 8.3417C12.2312 8.46226 11.9201 10.9628 11.9201 11.0153C11.9201 11.0423 11.566 11.0537 10.7246 11.0537H9.52906V9.64943V8.24516H10.8995H12.27L12.2528 8.3417ZM15.9638 8.26601C15.9638 8.28915 15.3382 10.8949 15.3093 10.9923C15.2924 11.0492 15.2054 11.0537 14.1314 11.0537H12.9718L12.9913 10.9396C13.0105 10.8277 13.3266 8.30684 13.3266 8.26598C13.3266 8.25453 13.92 8.24516 14.6452 8.24516C15.3705 8.24516 15.9638 8.25453 15.9638 8.26601ZM5.15181 12.1508C5.16053 12.1749 5.23891 12.7713 5.32597 13.4761C5.41304 14.1808 5.49212 14.8012 5.50165 14.8546L5.51902 14.9517L4.57975 14.9423L3.64052 14.933L3.31696 13.5989C3.13904 12.8652 2.99237 12.2294 2.99111 12.1859L2.98882 12.1069H4.06237C4.88932 12.1069 5.13958 12.117 5.15181 12.1508ZM8.47419 13.5287V14.9506H7.5248C7.00263 14.9506 6.57541 14.9412 6.57541 14.9297C6.57541 14.8941 6.26021 12.3778 6.2383 12.2386L6.21759 12.1069H7.34589H8.47419V13.5287ZM11.7795 12.1277C11.7795 12.1633 11.4643 14.6797 11.4424 14.8189L11.4217 14.9506H10.4754H9.52906V13.5287V12.1069H10.6543C11.2731 12.1069 11.7795 12.1163 11.7795 12.1277ZM15.0138 12.1683C15.0134 12.2021 14.8659 12.838 14.6861 13.5814L14.3592 14.933L13.4217 14.9423L12.4842 14.9517L12.5016 14.8546C12.5111 14.8012 12.5902 14.1808 12.6773 13.4761C12.7643 12.7713 12.8427 12.1749 12.8514 12.1508C12.8637 12.117 13.1139 12.1069 13.9409 12.1069C14.9401 12.1069 15.0144 12.1112 15.0138 12.1683Z" fill="white"/>
</svg>
