<svg width="70" height="66" viewBox="0 0 70 66" fill="none" xmlns="http://www.w3.org/2000/svg">
<path fill-rule="evenodd" clip-rule="evenodd" d="M24.85 0.188225C24.1281 0.413639 22.8967 1.67666 22.6754 2.4189C22.5396 2.87439 22.4965 6.99814 22.4965 19.5578V36.0969L20.9888 36.9337C20.1596 37.3939 18.5017 38.4513 17.3046 39.2836C16.1076 40.1158 15.0786 40.7967 15.018 40.7967C14.9574 40.7967 14.5636 40.3062 14.1429 39.7068C13.3301 38.5486 12.9093 38.2974 12.2672 38.5873C11.9334 38.7379 2.40357 45.2953 0.763166 46.5031C-0.575548 47.4887 -0.906954 46.8562 6.26188 56.9946C12.7179 66.1249 12.7494 66.1634 13.5605 65.9484C14.0784 65.8112 25.6245 57.7425 25.8316 57.373C26.1074 56.881 26.0702 56.6581 25.5864 55.9025L25.1458 55.2146L25.8029 54.8018C27.8194 53.535 30.556 53.1971 34.0657 53.7815C36.8252 54.2409 39.2215 54.2195 41.1776 53.7177C42.8874 53.2789 66.7123 44.7123 67.7016 44.1805C69.1373 43.4085 69.8797 42.1808 69.9775 40.4161C70.0359 39.361 69.9996 39.1383 69.6389 38.342C69.2241 37.4265 68.1447 36.2614 67.5332 36.0691L67.2134 35.9686V19.4937C67.2134 6.98445 67.1703 2.87425 67.0346 2.4189C66.7958 1.61852 65.5773 0.411454 64.7693 0.174966C63.9435 -0.0667675 25.6258 -0.053945 24.85 0.188225ZM38.9712 4.66051V6.99188H31.9106H24.85V5.01823C24.85 3.11686 24.8633 3.03133 25.2111 2.68687L25.5721 2.32915H32.2717H38.9712V4.66051ZM48.3852 7.31098V12.2928L46.8621 10.808C45.5531 9.53204 45.2708 9.32324 44.855 9.32324C44.4391 9.32324 44.1568 9.53204 42.8478 10.808L41.3247 12.2928V7.31098V2.32915H44.855H48.3852V7.31098ZM64.4988 2.68687C64.8467 3.03133 64.8599 3.11686 64.8599 5.01823V6.99188H57.7993H50.7388V4.66051V2.32915H57.4382H64.1378L64.4988 2.68687ZM38.9712 12.4626C38.9712 15.6016 38.9711 15.602 39.3323 15.9596C39.566 16.1912 39.8602 16.3173 40.1666 16.3173C40.5786 16.3173 40.9134 16.0488 42.7475 14.2475L44.855 12.1776L46.9624 14.2475C48.7965 16.0488 49.1313 16.3173 49.5433 16.3173C49.8497 16.3173 50.1439 16.1912 50.3777 15.9596C50.7388 15.602 50.7388 15.6016 50.7388 12.4626V9.32324H57.7993H64.8599V22.4257V35.5279L64.3819 35.6307C64.1188 35.687 62.944 36.0853 61.7709 36.5156L59.638 37.2977L55.4691 37.2987C51.566 37.2996 51.2768 37.2816 50.9375 37.0172C50.3268 36.5412 49.4048 36.3289 43.384 35.277C35.4226 33.8862 35.5159 33.8983 32.8667 33.9101C30.2964 33.9215 28.0537 34.2362 25.99 34.8751L24.85 35.2281V22.2756V9.32324H31.9106H38.9712V12.4626ZM34.926 36.277C36.918 36.4574 48.9148 38.5734 49.4237 38.8341C50.3193 39.2928 50.845 40.4477 50.5881 41.3923C50.2857 42.5048 49.4081 43.1639 48.2552 43.1441C47.8817 43.1376 44.7988 42.6425 41.4041 42.0438C38.0094 41.4449 35.2157 40.9711 35.1958 40.9908C35.1168 41.069 34.8126 43.1372 34.8716 43.1955C35.0439 43.3661 47.6904 45.4947 48.4951 45.4884C50.1616 45.4754 51.6459 44.555 52.4696 43.0238L52.9233 42.1808L58.9554 40.0116C64.2408 38.1108 65.0688 37.8514 65.6457 37.9158C67.6197 38.1363 68.3764 40.5555 66.8964 41.915C66.4734 42.3036 42.0799 51.1322 40.3686 51.516C38.7817 51.872 36.5732 51.8495 34.3213 51.4545C30.4252 50.7713 27.3452 51.2033 24.5685 52.8229L23.7646 53.2916L20.1152 48.1272C18.1079 45.2867 16.4656 42.9048 16.4656 42.834C16.4656 42.66 20.4882 39.8855 21.8785 39.1007C24.5691 37.5819 27.874 36.5629 31.0048 36.2869C32.8079 36.1278 33.2671 36.1267 34.926 36.277ZM17.7393 48.844C20.639 52.9493 23.0113 56.3875 23.0113 56.4844C23.0113 56.5812 21.3896 57.7877 19.4075 59.1653C17.4254 60.543 15.2946 62.0242 14.6725 62.4569L13.5413 63.2439L8.22957 55.7138C5.30812 51.5722 2.90473 48.1202 2.88855 48.0425C2.85677 47.8896 12.0161 41.4164 12.2968 41.3935C12.3906 41.3858 14.8397 44.7384 17.7393 48.844Z" fill="#B47700"/>
</svg>
