<svg width="50" height="68" viewBox="0 0 50 68" fill="none" xmlns="http://www.w3.org/2000/svg">
<path fill-rule="evenodd" clip-rule="evenodd" d="M24.3604 0.165268C23.219 0.803672 23.6966 2.63704 25.0043 2.63704C25.6714 2.63704 26.3209 1.98801 26.3209 1.3213C26.3209 0.323773 25.2285 -0.320343 24.3604 0.165268ZM17.0566 1.30363C10.7828 3.38744 5.45943 8.09422 2.54973 14.1296C-2.05913 23.6899 -0.317708 34.9855 6.947 42.6536C7.60915 43.3526 8.15096 43.956 8.15096 43.9947C8.15096 44.0335 6.34383 47.2814 4.13512 51.2123C1.92642 55.1433 0.119293 58.5 0.119293 58.6717C0.119293 59.1749 0.470184 59.7172 0.916666 59.9037C1.29152 60.0604 1.77908 59.984 5.9961 59.1072C8.56176 58.5739 10.6828 58.1606 10.7095 58.1888C10.7361 58.2169 11.4402 60.1839 12.274 62.5599C14.0661 67.6666 14.0272 67.5744 14.49 67.816C15.0754 68.1214 15.5066 68.0507 15.9689 67.5735C16.1989 67.3359 18.3113 63.7193 20.6628 59.5362C23.0144 55.3532 24.9681 51.9307 25.0043 51.9307C25.0405 51.9307 26.9942 55.3532 29.3457 59.5362C31.6973 63.7193 33.8096 67.3359 34.0396 67.5735C34.5019 68.0507 34.9331 68.1214 35.5185 67.816C35.9813 67.5744 35.9425 67.6666 37.7346 62.5599C38.5683 60.1839 39.2734 58.2159 39.3013 58.1865C39.3292 58.1571 41.4497 58.5707 44.0134 59.1056C48.2342 59.9862 48.714 60.0617 49.0907 59.9043C49.5388 59.7169 49.8893 59.1753 49.8893 58.67C49.8893 58.4973 48.0821 55.1433 45.8734 51.2167C43.6647 47.2901 41.8576 44.0331 41.8576 43.979C41.8576 43.9251 42.1608 43.5841 42.5316 43.2214C46.5086 39.3308 49.1684 33.8362 49.8283 28.1474C51.0698 17.4471 45.4932 7.20405 35.8668 2.50258C34.1172 1.64801 31.5876 0.776966 30.8558 0.776966C29.8095 0.776966 29.1823 2.19129 29.9137 2.9017C30.0842 3.06711 30.9717 3.44537 31.9577 3.77288C35.3554 4.90088 38.2507 6.70342 40.8043 9.28015C42.6872 11.1802 43.8379 12.7977 45.0101 15.1925C47.7239 20.7363 48.1245 26.6397 46.1822 32.4646C43.4088 40.7823 36.0581 46.7162 27.3465 47.6702C19.1722 48.5653 11.0455 44.7267 6.4177 37.7847C2.63821 32.1155 1.63346 24.9309 3.6947 18.3148C4.22953 16.5978 5.71881 13.602 6.79887 12.0703C7.93173 10.4637 10.3623 8.01265 11.9721 6.85356C13.5499 5.71745 16.4945 4.24175 18.2893 3.68771C19.8713 3.19944 20.0606 3.10152 20.2549 2.67118C20.5088 2.10878 20.4235 1.58145 20.0111 1.16532C19.4882 0.63786 18.9911 0.66111 17.0566 1.30363ZM22.6343 5.42808C17.6672 6.11803 13.4875 8.36593 10.1468 12.1439C7.8788 14.7086 6.22125 18.1678 5.56634 21.7028C5.20281 23.6648 5.2352 27.184 5.63428 29.0766C6.57399 33.5331 8.60534 37.083 11.9661 40.1423C14.4633 42.4152 17.6275 44.0042 21.1859 44.7722C23.1792 45.2024 26.8293 45.2024 28.8226 44.7722C36.815 43.0474 42.6676 37.1416 44.3769 29.0766C44.6229 27.9161 44.6726 27.2685 44.6726 25.2236C44.6726 23.1787 44.6229 22.5312 44.3769 21.3706C42.6728 13.3298 36.7816 7.36787 28.8884 5.69593C27.3877 5.37799 24.0301 5.23423 22.6343 5.42808ZM28.5593 8.33497C31.9613 9.11447 34.5381 10.5373 37.0038 12.9979C39.5188 15.5075 41.0418 18.3383 41.811 21.9329C42.1387 23.4644 42.1387 26.9829 41.811 28.5144C41.0415 32.1103 39.5178 34.942 37.0038 37.4479C34.503 39.9409 31.867 41.374 28.2959 42.1824C26.8696 42.5053 23.2159 42.5061 21.7432 42.184C18.2269 41.4146 15.4873 39.9202 12.939 37.3813C10.482 34.9332 8.96321 32.0981 8.2027 28.5399C7.86708 26.9698 7.86695 23.4782 8.20231 21.9091C8.9665 18.3341 10.3964 15.651 12.8871 13.1189C15.4656 10.4978 18.7051 8.7681 22.0418 8.2312C22.5487 8.14963 23.1116 8.05715 23.2926 8.0258C24.0797 7.88935 27.487 8.08931 28.5593 8.33497ZM24.3175 12.5425C24.0418 12.6935 23.5782 13.5062 22.2934 16.0912C21.377 17.9353 20.6102 19.4635 20.5896 19.4872C20.569 19.5108 18.8936 19.7824 16.8668 20.0906C14.5594 20.4415 13.0949 20.7234 12.9499 20.8448C12.6199 21.121 12.3652 21.8053 12.453 22.18C12.4944 22.3565 13.7344 23.7252 15.217 25.2307L17.9059 27.9614L17.3022 31.5982C16.9702 33.5986 16.7336 35.3965 16.7766 35.5937C16.8195 35.7908 17.003 36.0928 17.1843 36.2647C17.7957 36.8442 18.1911 36.7223 21.6746 34.8806C23.428 33.9537 24.9316 33.1954 25.0161 33.1954C25.1005 33.1954 26.5989 33.9539 28.3457 34.881C31.8172 36.7235 32.2117 36.8454 32.8242 36.2647C33.0055 36.0928 33.1891 35.7908 33.232 35.5937C33.2749 35.3965 33.0383 33.5986 32.7064 31.5982L32.1027 27.9614L34.8202 25.2169C37.2921 22.7204 37.5388 22.4301 37.5508 22.0041C37.5661 21.4571 37.2302 20.8758 36.8045 20.7124C36.6399 20.6493 35.0581 20.3805 33.2893 20.1152C31.5206 19.8499 29.9081 19.6001 29.7061 19.56C29.3748 19.4942 29.1717 19.1502 27.6454 16.0717C26.2994 13.3569 25.8807 12.6235 25.6036 12.4962C25.1487 12.287 24.7583 12.301 24.3175 12.5425ZM26.2867 19.1733C27.0135 20.6428 27.6201 21.704 27.7993 21.8201C27.9638 21.9266 29.1353 22.1686 30.4026 22.3579C31.6699 22.5471 32.8826 22.7388 33.0973 22.7839C33.4827 22.8648 33.4615 22.8915 31.4939 24.8136C30.373 25.9087 29.4641 26.9059 29.418 27.0913C29.3728 27.2726 29.5369 28.6305 29.7826 30.1088C30.0283 31.5872 30.2025 32.7968 30.17 32.7968C30.1373 32.7968 29.0197 32.2288 27.6865 31.5346C26.3532 30.8404 25.1487 30.2724 25.0098 30.2724C24.8709 30.2724 23.6644 30.8404 22.3289 31.5346C20.9933 32.2288 19.8732 32.7968 19.8399 32.7968C19.8066 32.7968 19.9803 31.5872 20.226 30.1088C20.4717 28.6305 20.6352 27.2705 20.5894 27.0865C20.5417 26.895 19.6552 25.922 18.514 24.8088C16.5538 22.8967 16.5281 22.8643 16.9118 22.7871C17.1263 22.7438 18.3387 22.5515 19.6059 22.3596C20.8732 22.1678 22.0448 21.9243 22.2093 21.8185C22.3894 21.7028 22.9914 20.6501 23.7218 19.1733C24.3891 17.8243 24.9662 16.7204 25.0043 16.7204C25.0423 16.7204 25.6194 17.8243 26.2867 19.1733ZM12.1668 46.8654C14.9887 48.5926 18.8394 49.9364 21.9482 50.2789C22.4036 50.329 22.7591 50.4119 22.7382 50.4631C22.5874 50.8312 15.4587 63.3547 15.4007 63.3531C15.3601 63.352 14.8875 62.0816 14.3506 60.5298C12.6937 55.7413 12.6586 55.6597 12.1534 55.4166C11.724 55.21 11.5821 55.2294 7.88933 55.9977C5.78833 56.4348 4.06929 56.775 4.06929 56.7536C4.06929 56.7237 9.92793 46.2656 10.2185 45.7769C10.2534 45.718 10.4395 45.7757 10.6319 45.905C10.8243 46.0342 11.515 46.4664 12.1668 46.8654ZM42.8984 51.2992C44.5709 54.2777 45.9393 56.7317 45.9393 56.7525C45.9393 56.7734 44.221 56.4328 42.1211 55.9957C38.4247 55.2266 38.2887 55.208 37.857 55.4158C37.3496 55.6599 37.316 55.7381 35.658 60.5298C35.121 62.0816 34.6485 63.352 34.6079 63.3531C34.5498 63.3547 27.4212 50.8312 27.2704 50.4631C27.2495 50.4119 27.605 50.329 28.0604 50.2789C31.3743 49.9138 35.3725 48.4589 38.4343 46.5035C39.1222 46.0641 39.7239 45.745 39.7714 45.7942C39.8189 45.8435 41.226 48.3207 42.8984 51.2992Z" fill="#FFD234"/>
</svg>
