<svg width="44" height="36" viewBox="0 0 44 36" fill="none" xmlns="http://www.w3.org/2000/svg">
<path d="M43.3864 3.79785V13.2236C43.3864 15.9 42.8627 18.6347 41.8154 21.4275C40.7681 24.2203 39.3862 26.8531 37.6698 29.3259C35.9534 31.7987 34.0915 33.8642 32.0842 35.5225L23.8803 30.6787C25.5094 28.1186 26.8477 25.4422 27.895 22.6493C28.9132 19.8565 29.4223 16.7437 29.4223 13.3109V3.79785L43.3864 3.79785ZM21.3493 3.79785V13.2236C21.3493 15.9 20.8257 18.6347 19.7784 21.4275C18.7311 24.2203 17.3492 26.8531 15.6328 29.3259C13.9164 31.7987 12.0545 33.8642 10.0472 35.5225L1.84326 30.6787C3.4724 28.1186 4.81063 25.4422 5.85793 22.6493C6.87615 19.8565 7.38525 16.7437 7.38525 13.3109L7.38525 3.79785L21.3493 3.79785Z" fill="#FFD234"/>
<path d="M41.5431 0.111331V9.53708C41.5431 12.2135 41.0195 14.9482 39.9721 17.741C38.9248 20.5338 37.543 23.1666 35.8266 25.6394C34.1101 28.1122 32.2483 30.1777 30.2409 31.8359L22.037 26.9922C23.6662 24.4321 25.0044 21.7556 26.0517 18.9628C27.0699 16.17 27.579 13.0572 27.579 9.62436V0.11133L41.5431 0.111331ZM19.5061 0.111329V9.53708C19.5061 12.2135 18.9824 14.9482 17.9351 17.741C16.8878 20.5338 15.5059 23.1666 13.7895 25.6394C12.0731 28.1122 10.2112 30.1777 8.20389 31.8359L0 26.9922C1.62914 24.4321 2.96737 21.7556 4.01467 18.9628C5.03288 16.17 5.54199 13.0572 5.54199 9.62435L5.54199 0.111328L19.5061 0.111329Z" fill="#E43088"/>
</svg>
