<?xml version="1.0" encoding="UTF-8" standalone="no"?>
<!-- Created with Inkscape (http://www.inkscape.org/) -->

<svg
   width="20mm"
   height="17mm"
   viewBox="0 0 20 17"
   version="1.1"
   id="svg5"
   inkscape:version="1.1.1 (3bf5ae0d25, 2021-09-20)"
   sodipodi:docname="quots.svg"
   xmlns:inkscape="http://www.inkscape.org/namespaces/inkscape"
   xmlns:sodipodi="http://sodipodi.sourceforge.net/DTD/sodipodi-0.dtd"
   xmlns="http://www.w3.org/2000/svg"
   xmlns:svg="http://www.w3.org/2000/svg">
  <sodipodi:namedview
     id="namedview7"
     pagecolor="#ffffff"
     bordercolor="#666666"
     borderopacity="1.0"
     inkscape:pageshadow="2"
     inkscape:pageopacity="0.0"
     inkscape:pagecheckerboard="0"
     inkscape:document-units="mm"
     showgrid="false"
     inkscape:zoom="2.9362514"
     inkscape:cx="13.622812"
     inkscape:cy="25.372487"
     inkscape:window-width="1920"
     inkscape:window-height="1009"
     inkscape:window-x="1912"
     inkscape:window-y="-8"
     inkscape:window-maximized="1"
     inkscape:current-layer="layer1" />
  <defs
     id="defs2" />
  <g
     inkscape:label="Слой 1"
     inkscape:groupmode="layer"
     id="layer1">
    <g
       style="fill:none"
       id="g848"
       transform="matrix(0.26458333,0,0,0.26458333,-71.014108,-1.8574429)">
      <g
         id="g1172"
         transform="translate(270.41282,10.89825)">
        <path
           d="M 70.9915,6.00001 V 21.3409 c 0,4.3561 -0.8523,8.8068 -2.5568,13.3523 -1.7046,4.5454 -3.9536,8.8305 -6.7472,12.8551 -2.7935,4.0246 -5.8238,7.3864 -9.0909,10.0852 L 39.2443,49.75 c 2.6516,-4.1667 4.8296,-8.5227 6.5341,-13.0682 1.6572,-4.5454 2.4858,-9.6117 2.4858,-15.1988 V 6 Z M 35.125,6 v 15.3409 c 0,4.3561 -0.8522,8.8068 -2.5568,13.3523 -1.7045,4.5454 -3.9536,8.8305 -6.7471,12.8551 -2.7936,4.0246 -5.8239,7.3864 -9.091,10.0852 L 3.37787,49.75 C 6.02939,45.5833 8.20742,41.2273 9.91196,36.6818 11.5692,32.1364 12.3978,27.0701 12.3978,21.483 V 6 Z"
           fill="#ffd234"
           id="path824" />
        <path
           d="M 67.9915,5.12243e-6 V 15.3409 c 0,4.3561 -0.8523,8.8068 -2.5568,13.3523 -1.7046,4.5454 -3.9536,8.8305 -6.7472,12.8551 -2.7935,4.0246 -5.8238,7.3864 -9.0909,10.0852 L 36.2443,43.75 c 2.6516,-4.1667 4.8296,-8.5227 6.5341,-13.0682 1.6572,-4.5454 2.4858,-9.6117 2.4858,-15.1988 V 3.13555e-6 Z M 32.125,1.98688e-6 V 15.3409 c 0,4.3561 -0.8522,8.8068 -2.5568,13.3523 -1.7045,4.5454 -3.9536,8.8305 -6.7471,12.8551 -2.7936,4.0246 -5.8239,7.3864 -9.091,10.0852 L 0.377869,43.75 C 3.02939,39.5833 5.20742,35.2273 6.91196,30.6818 8.56916,26.1364 9.39776,21.0701 9.39776,15.483 V 0 Z"
           fill="#e43088"
           id="path830" />
      </g>
    </g>
  </g>
</svg>
