<svg width="80" height="77" viewBox="0 0 80 77" fill="none" xmlns="http://www.w3.org/2000/svg">
<path fill-rule="evenodd" clip-rule="evenodd" d="M9.71776 0.278891C9.33881 0.466253 8.98105 0.800829 8.77904 1.15682C8.46498 1.70998 8.45251 1.89392 8.45251 5.99418C8.45251 10.7184 8.45792 10.7489 9.43809 11.5487L9.97925 11.9905L9.92938 14.6476C9.88117 17.2123 9.86465 17.3347 9.45612 18.1583C8.85744 19.3655 7.98045 20.1606 6.21731 21.0947C4.33237 22.0935 3.15334 23.0229 2.21703 24.2479C0.758935 26.1557 0.209522 27.8207 0.0845602 30.7113L0 32.6677L0.389456 33.0533C0.879992 33.539 1.44848 33.5466 1.9258 33.0738C2.26659 32.7364 2.29468 32.5987 2.29708 31.2523C2.30414 27.3026 3.6598 25.0769 7.27529 23.0784C10.0153 21.5638 11.1045 20.3806 11.9055 18.0484L12.1608 17.3049L15.9858 17.2652L19.8109 17.2257L20.0798 18.0831C20.6823 20.0044 21.9776 21.5714 23.7647 22.5417C25.8548 23.6763 26.58 24.1596 27.3925 24.9594C28.3255 25.8776 29.1887 27.4771 29.4652 28.7993C29.6932 29.8897 29.698 71.4572 29.4702 72.0541C29.2431 72.6492 28.6021 73.283 27.9027 73.6034C27.3347 73.8638 26.6833 73.8788 15.9623 73.8788C5.25472 73.8788 4.58905 73.8635 4.02177 73.6043C3.29467 73.2721 2.83703 72.8013 2.52703 72.0665C2.32171 71.5802 2.29453 69.5052 2.29453 54.3293V37.1429L1.9258 36.778C1.48362 36.34 0.953437 36.3106 0.471312 36.6972L0.116701 36.9814V54.5784V72.1753L0.537848 73.0675C1.23175 74.5374 2.29107 75.4443 3.83237 75.8879C4.55916 76.0971 6.0162 76.1199 16.3538 76.0831L28.0529 76.0415L28.879 75.6558C29.9325 75.1637 30.9212 74.1848 31.4182 73.1419L31.8078 72.324L31.8494 50.8368C31.8961 26.6714 31.9669 28.2809 30.7539 25.8819C29.6744 23.7472 28.2509 22.4244 25.3581 20.8678C23.9346 20.1018 23.1129 19.3097 22.5333 18.1445C22.0471 17.1671 22.045 17.1532 21.9935 14.5433L21.9417 11.9233L22.4723 11.6134C23.5153 11.004 23.5471 10.8381 23.5471 6.0037C23.5471 1.216 23.5265 1.1018 22.5355 0.402015L22.0452 0.0556919L16.1875 0.0159889C10.5531 -0.022227 10.3067 -0.0122641 9.71776 0.278891ZM21.2942 6.0037V9.72121L15.9998 9.76031L10.7054 9.79942V6.0037V2.20798L15.9998 2.24709L21.2942 2.2862V6.0037ZM19.7171 13.5131V15.0001H15.9623H12.2074V13.5131V12.0261H15.9623H19.7171V13.5131ZM14.5724 21.5557C11.9068 22.1775 9.95446 24.6555 9.95446 27.4165C9.95446 32.7181 16.3555 35.3765 20.2131 31.6769C23.5521 28.4748 22.0283 22.7811 17.5213 21.6189C16.571 21.3738 15.4543 21.3499 14.5724 21.5557ZM17.7042 24.0403C18.4813 24.4327 19.3253 25.3582 19.5789 26.0959C19.8397 26.8543 19.817 28.1751 19.5319 28.84C18.2518 31.8255 14.048 31.9816 12.5964 29.0976C11.5905 27.0991 12.5736 24.6242 14.68 23.8522C15.4872 23.5564 16.9229 23.6456 17.7042 24.0403ZM7.33071 36.9686C7.08559 37.0044 6.69584 37.167 6.46484 37.3298C5.65018 37.9042 5.59866 38.1743 5.59987 41.8702C5.60092 45.603 5.63651 45.7645 6.59626 46.391C7.00479 46.6576 7.46033 46.6713 15.9623 46.6717C24.5617 46.672 24.917 46.6612 25.3796 46.3818C26.2724 45.8429 26.3257 45.5791 26.3257 41.697V38.193L25.8376 37.6667C25.5285 37.3337 25.1291 37.0904 24.7487 37.0034C24.1639 36.8697 8.22602 36.838 7.33071 36.9686ZM24.0728 41.8405V44.4427H15.9623H7.85174V41.8405V39.2382H15.9623H24.0728V41.8405ZM5.91017 61.489C5.73894 61.7044 5.59881 62.0264 5.59881 62.2044C5.59881 62.6577 6.10857 63.1491 6.68713 63.2534C6.95597 63.3019 11.3553 63.3217 16.4638 63.2975L25.7517 63.2533L26.0387 62.9022C26.4109 62.447 26.4049 61.7703 26.0253 61.3945C25.7311 61.1032 25.5247 61.0971 15.9732 61.0971H6.22137L5.91017 61.489ZM5.91017 66.3961C5.73894 66.6115 5.59881 66.8761 5.59881 66.9839C5.59881 67.4236 5.96739 67.9318 6.39289 68.0786C7.03678 68.3009 24.91 68.2932 25.5555 68.0704C26.3505 67.7961 26.597 66.8676 26.0253 66.3017C25.7311 66.0103 25.5247 66.0042 15.9732 66.0042H6.22137L5.91017 66.3961Z" fill="#0182BC"/>
<path d="M21.7886 56.6797C22.6423 58.0008 24.2928 57.3591 24.0651 44.2243C24.0192 41.5744 23.7805 39.4119 23.7805 36.5812C25.2576 27.6628 30.2545 22.1963 32.6017 20.1626H35.1626L37.7236 29.7873L36.5854 37.9965V52.1505L37.7236 70.5506L34.5935 73.0983H29.7561L27.1951 73.6644L24.0651 74.7967L20.6504 73.6644L19.5122 71.1167L20.6504 68.569L21.7886 64.6059V56.6797Z" fill="white"/>
<path fill-rule="evenodd" clip-rule="evenodd" d="M47.4512 10.4446C44.9532 10.7945 43.8567 11.0373 42.1575 11.6168C40.6864 12.1186 38.3639 13.2588 38.2051 13.5573C37.9824 13.9757 38.0411 14.412 38.3605 14.7139C38.79 15.1194 39.1828 15.0631 40.4907 14.4086C41.9152 13.6958 43.8104 13.0493 45.5995 12.6656C47.5351 12.2506 51.3148 12.2493 53.2617 12.663C55.6557 13.1717 57.7971 13.984 59.8384 15.1579C62.5252 16.7028 65.6965 19.4997 67.9103 22.2764C68.8903 23.5055 70.2462 25.4235 70.2462 25.5804C70.2462 25.6189 60.8792 25.6504 49.4306 25.6504C37.982 25.6504 28.6149 25.6189 28.6149 25.5804C28.6149 25.4237 29.9686 23.5088 30.9193 22.3204C32.1963 20.7242 33.8118 19.0636 35.4151 17.6991C36.5311 16.7494 36.6602 16.5949 36.6602 16.2108C36.6602 15.7214 36.1858 15.2498 35.6937 15.2498C35.1163 15.2498 32.259 17.7824 30.3651 19.9726C29.2191 21.2979 27.4613 23.6829 26.6671 24.99C26.2979 25.5975 26.1183 25.7788 25.886 25.7788C25.3586 25.7788 23.8225 26.6473 23.255 27.2663C22.9595 27.5887 22.5649 28.1804 22.3779 28.5811L22.0382 29.3098L22.0014 33.5848L21.9645 37.8599L22.3189 38.5145C22.5195 38.8852 22.8817 39.3079 23.1538 39.4889C23.6701 39.8324 23.706 39.9597 23.4988 40.7103C23.4249 40.9777 23.1711 42.1622 22.9347 43.3425C21.7686 49.1635 21.0282 55.953 20.8802 62.1807C20.8416 63.805 20.7553 65.3785 20.6885 65.6773C20.6219 65.9761 20.3398 66.5744 20.0618 67.0067C18.0294 70.1685 18.6416 73.9597 21.4226 75.4336C23.202 76.3767 25.2879 76.3128 27.202 75.2563C27.663 75.0019 28.2701 74.6714 28.5511 74.5221L29.0619 74.2505H49.4944H69.927L71.0763 74.9291C72.6104 75.835 73.3373 76.0491 74.8436 76.0387C76.7743 76.0253 78.0902 75.3714 79.094 73.9267C80.3426 72.1297 80.2969 69.476 78.9804 67.3168C78.0761 65.8337 78.1162 66.0242 78.0193 62.7586C77.8943 58.5404 77.811 57.6529 77.5128 57.3531C77.1404 56.9787 76.4561 57.0302 76.1216 57.4577C75.8802 57.7663 75.8578 57.9114 75.9279 58.7097C75.9716 59.2063 76.0521 61.0861 76.1069 62.887C76.2162 66.4809 76.2528 66.659 77.1466 67.9651C78.1342 69.4086 78.3617 71.1392 77.7332 72.4307C77.3261 73.2674 76.7752 73.7441 75.9145 74.0045C74.6724 74.3805 73.3996 74.1221 71.843 73.1781C70.2091 72.1872 71.9921 72.2603 49.4306 72.2603C26.8691 72.2603 28.6521 72.1872 27.0181 73.1781C25.4616 74.1221 24.1887 74.3805 22.9467 74.0045C22.0846 73.7437 21.5349 73.2671 21.1254 72.4257C20.8303 71.819 20.7697 71.5319 20.7801 70.7875C20.7948 69.7403 21.0655 68.9659 21.8366 67.7664C22.122 67.3222 22.419 66.7506 22.4964 66.4958C22.5739 66.2412 22.6878 64.5594 22.7495 62.7586C22.933 57.4046 23.3732 52.5253 24.0933 47.8639C24.4194 45.7536 25.1497 41.9588 25.4649 40.7376L25.6306 40.0956H49.4306H73.2305L73.3964 40.7376C74.0329 43.2005 74.9132 48.3834 75.3592 52.2938C75.6029 54.4296 75.6472 54.627 75.9427 54.8939C76.1187 55.0529 76.4056 55.1828 76.5804 55.1828C76.9167 55.1828 77.5253 54.6683 77.5253 54.3842C77.5253 54.2915 77.3813 53.0032 77.2052 51.5213C76.8233 48.3086 76.2847 45.0158 75.6736 42.1588C75.4278 41.0094 75.2267 40.0106 75.2267 39.9389C75.2267 39.8673 75.443 39.6648 75.7073 39.4889C75.9795 39.3079 76.3416 38.8852 76.5423 38.5145L76.8966 37.8599L76.8597 33.5848L76.823 29.3098L76.4833 28.5811C76.2963 28.1804 75.9017 27.5887 75.6062 27.2663C75.0401 26.6488 73.5029 25.7788 72.9781 25.7788C72.7444 25.7788 72.5466 25.5658 72.0693 24.8001C71.7338 24.2618 70.9602 23.1433 70.3502 22.3145C65.6401 15.9151 59.6092 11.8457 53.134 10.698C51.9853 10.4943 48.2769 10.3291 47.4512 10.4446ZM72.8728 27.7653C73.6738 28.0055 74.3636 28.5783 74.7044 29.2861C74.9568 29.8103 74.9713 30.0478 74.9713 33.6756C74.9713 37.4368 74.9659 37.5168 74.6936 37.8082L74.4159 38.1054H49.4485H24.4811L24.1854 37.8262L23.8899 37.5469V33.6936C23.8899 30.0475 23.9042 29.8105 24.1568 29.2861C24.4882 28.5977 25.1797 28.0089 25.9332 27.7738C26.8193 27.497 71.9517 27.489 72.8728 27.7653ZM36.2881 30.1655C35.7216 30.3762 35.6471 30.6207 35.6427 32.2809C35.6379 34.1236 35.775 34.4331 36.5964 34.4331C37.4138 34.4331 37.5542 34.1212 37.5542 32.3045C37.5542 31.4603 37.4979 30.6638 37.4292 30.5347C37.2584 30.2139 36.6698 30.0235 36.2881 30.1655ZM61.8633 30.2076C61.6486 30.2984 61.4356 30.4705 61.39 30.5901C61.3443 30.7097 61.307 31.4897 61.307 32.3236C61.307 34.1193 61.4495 34.4331 62.2648 34.4331C63.0862 34.4331 63.2233 34.1236 63.2185 32.2809C63.2141 30.618 63.1417 30.382 62.5681 30.1628C62.353 30.0805 62.1304 30.0948 61.8633 30.2076ZM45.4022 32.7709C45.2298 32.9442 45.0887 33.2344 45.0887 33.4157C45.0887 33.9387 46.0071 34.8301 47.1115 35.3787C48.0424 35.8414 48.1242 35.8583 49.4306 35.8583C50.737 35.8583 50.8187 35.8414 51.7497 35.3787C52.8541 34.8301 53.7725 33.9387 53.7725 33.4157C53.7725 32.997 53.2416 32.4557 52.8309 32.4557C52.6432 32.4557 52.2464 32.6873 51.8472 33.0299C50.991 33.7647 50.1612 34.0494 49.12 33.9653C48.2122 33.8921 47.7675 33.6891 46.9425 32.9711C46.255 32.3729 45.8503 32.3202 45.4022 32.7709ZM29.1281 49.5193C27.1093 50.2442 26.4172 52.7162 27.8339 54.1407C28.1949 54.5037 28.7368 54.7931 30.0285 55.3132C31.7181 55.9932 32.446 56.4748 32.446 56.9128C32.446 57.3035 32.0599 57.8743 31.6457 58.0955C31.1357 58.368 29.9995 58.3747 29.3812 58.1087C29.1353 58.0031 28.6845 57.7059 28.3793 57.4485C28.0719 57.1891 27.685 56.9805 27.5116 56.9805C27.1037 56.9805 26.5717 57.5219 26.5717 57.9373C26.5717 58.7506 28.268 59.9125 29.8623 60.1912C32.2192 60.6031 34.2862 59.133 34.2862 57.0447C34.2862 55.4548 33.5007 54.6343 31.0206 53.6337C29.2722 52.9282 28.998 52.753 28.998 52.3404C28.998 51.1998 30.4931 50.8579 32.0079 51.6518C32.9889 52.1659 33.3617 52.2078 33.7231 51.8444C34.1325 51.4327 34.0628 50.7831 33.5634 50.3589C32.4356 49.4006 30.4858 49.0315 29.1281 49.5193ZM35.6628 49.5382C35.3874 49.796 35.3832 49.8568 35.3845 53.5507C35.3856 57.2296 35.3915 57.3138 35.6884 57.9435C36.4467 59.5516 38.36 60.5238 40.1096 60.1903C41.5254 59.9202 42.5802 59.1691 43.133 58.0372L43.4924 57.3015L43.5315 53.6113L43.5707 49.9212L43.25 49.5988C42.8433 49.1898 42.2892 49.1767 41.9242 49.5673C41.6621 49.8477 41.651 49.9888 41.6146 53.4753L41.5768 57.0924L41.1937 57.4973C40.647 58.0752 40.1443 58.3012 39.4059 58.3012C38.6881 58.3012 38.1596 58.0741 37.6819 57.5605L37.3626 57.2172L37.2988 53.492C37.2349 49.7674 37.2349 49.7668 36.9334 49.5216C36.5414 49.2026 36.0134 49.2096 35.6628 49.5382ZM48.365 49.5299C45.1893 50.5501 43.63 54.1895 45.0864 57.1828C45.5529 58.1417 46.734 59.3104 47.6707 59.7398C49.5121 60.5841 51.5879 60.3624 53.0253 59.168C54.0617 58.3067 54.7941 56.6284 54.7941 55.1144C54.7941 54.3903 54.7577 54.2739 54.4576 54.0366C54.1603 53.8014 53.9454 53.7704 52.6119 53.7704C50.9826 53.7704 50.5591 53.8817 50.3386 54.3684C50.1392 54.8084 50.1595 54.9721 50.4615 55.3581C50.7076 55.6728 50.797 55.6964 51.7386 55.6964C52.6723 55.6964 52.7509 55.7167 52.7509 55.9584C52.7509 56.2581 52.3112 57.1862 52.0016 57.5398C51.3146 58.3251 49.7671 58.5452 48.6005 58.0236C47.2458 57.4181 46.4774 56.2183 46.4774 54.7086C46.4774 53.296 47.1292 52.2576 48.458 51.5536C49.2837 51.116 50.6895 51.1531 51.7018 51.6389C52.393 51.9709 52.5191 51.9941 52.8587 51.8527C53.0682 51.7654 53.3066 51.5315 53.3885 51.333C53.9588 49.9485 50.7014 48.7794 48.365 49.5299ZM58.5785 49.5652C58.3528 49.7713 57.7649 51.1731 56.5281 54.4534C55.5744 56.9829 54.7941 59.1867 54.7941 59.3505C54.7941 59.8178 55.2048 60.2333 55.6665 60.2333C56.2252 60.2333 56.5171 59.9171 56.9081 58.8885L57.2451 58.0014L59.3023 58.0367L61.3594 58.0719L61.6856 58.9354C62.0732 59.9605 62.3129 60.2333 62.8265 60.2333C63.2678 60.2333 63.5837 60.0084 63.7461 59.5788C63.9021 59.1665 60.4316 49.8421 59.9963 49.5039C59.5924 49.1902 58.9592 49.2177 58.5785 49.5652ZM65.7988 49.5735C65.5239 49.8678 65.5212 49.9178 65.5212 54.718C65.5212 57.8893 65.5681 59.6534 65.6567 59.82C65.9559 60.3821 66.9976 60.3858 67.2645 59.8256C67.3203 59.7085 67.3963 58.8834 67.4333 57.9921L67.5006 56.3716L69.0969 58.2094C69.9749 59.2203 70.8453 60.113 71.0312 60.1932C71.2999 60.3092 71.4475 60.2985 71.7501 60.1412C71.9595 60.0323 72.1665 59.8497 72.2102 59.7353C72.414 59.2014 72.2541 58.9044 70.9634 57.4193L69.6373 55.8935L70.3807 55.5348C72.5432 54.4911 72.9325 51.6832 71.1297 50.1318C70.3195 49.4345 69.6956 49.2763 67.7555 49.2763C66.1656 49.2763 66.0618 49.2921 65.7988 49.5735ZM69.6119 51.3972C70.0293 51.6142 70.3739 52.1832 70.3739 52.6552C70.3739 53.0715 69.9157 53.633 69.3988 53.8502C69.167 53.9476 68.6308 54.0272 68.2071 54.0272H67.4368V52.6148V51.2024H68.3371C68.8919 51.2024 69.381 51.2771 69.6119 51.3972ZM60.5408 55.9643C60.5408 56.0289 59.9661 56.0816 59.2637 56.0816C58.5614 56.0816 57.9867 56.0655 57.9867 56.0457C57.9867 56.0259 58.274 55.2621 58.6252 54.3482C58.9764 53.4344 59.2662 52.6561 59.2691 52.6186C59.2777 52.5107 60.5408 55.8337 60.5408 55.9643Z" fill="#0182BC"/>
</svg>
