<svg width="10" height="12" viewBox="0 0 10 12" fill="none" xmlns="http://www.w3.org/2000/svg">
<path fill-rule="evenodd" clip-rule="evenodd" d="M3.3012 0.029498C3.21246 0.0707559 3.13214 0.158848 3.098 0.252391C3.08337 0.292448 3.07229 0.51044 3.07229 0.758162V1.19354L1.65236 1.20037C0.26106 1.20705 0.231084 1.20825 0.165879 1.25876C0.129301 1.28711 0.077012 1.34137 0.0496868 1.37936C0.00209639 1.44549 0 1.47995 0 2.19489C0 2.90982 0.00209639 2.94428 0.0496868 3.01042C0.157422 3.16017 0.21106 3.1819 0.495663 3.19102L0.759036 3.1995L0.759446 6.87923C0.759928 10.9782 0.750675 10.7453 0.927542 11.1101C1.14101 11.5503 1.52602 11.8598 1.9861 11.961C2.2268 12.014 7.77834 12.0125 8.0241 11.9595C8.53624 11.8488 8.99655 11.4139 9.17533 10.8715L9.22892 10.709L9.2354 6.95424L9.24188 3.19948L9.5048 3.19102C9.78889 3.1819 9.8426 3.16012 9.95031 3.01042C9.9979 2.94428 10 2.90982 10 2.19489C10 1.47995 9.9979 1.44549 9.95031 1.37936C9.92299 1.34137 9.8707 1.28711 9.83412 1.25876C9.76892 1.20825 9.73894 1.20705 8.34911 1.20037L6.93063 1.19354L6.92313 0.72078C6.91496 0.203556 6.90937 0.182202 6.74976 0.0585286C6.68426 0.00774393 6.65798 0.00689376 5.02836 0.00141772C3.68571 -0.00305814 3.35986 0.00221785 3.3012 0.029498ZM6.15663 0.994657V1.19469H5H3.84337V0.994657V0.794619H5H6.15663V0.994657ZM9.24096 2.19489V2.39492H5H0.759036V2.19489V1.99485H5H9.24096V2.19489ZM8.46424 6.90203L8.45783 10.609L8.39289 10.7367C8.29672 10.9259 8.2241 11.0038 8.05545 11.0987L7.90361 11.1841H5H2.09639L1.97333 11.1167C1.79099 11.0169 1.71595 10.9415 1.62451 10.7665L1.54217 10.609L1.53576 6.90203L1.52935 3.19508H5H8.47065L8.46424 6.90203ZM2.91446 4.02901C2.8168 4.07499 2.71605 4.20267 2.69884 4.30226C2.69118 4.34657 2.68805 5.6788 2.69186 7.26277C2.69875 10.1269 2.69906 10.1431 2.74848 10.2118C2.84289 10.343 2.9199 10.3839 3.07229 10.3839C3.22467 10.3839 3.30169 10.343 3.3961 10.2118C3.44561 10.1429 3.44578 10.1332 3.44578 7.19584C3.44578 4.2585 3.44561 4.24873 3.3961 4.17989C3.36877 4.14191 3.31807 4.08887 3.28345 4.06204C3.20369 4.00025 3.012 3.9831 2.91446 4.02901ZM4.84217 4.02901C4.74451 4.07499 4.64376 4.20267 4.62655 4.30226C4.61889 4.34657 4.61576 5.6788 4.61957 7.26277C4.62646 10.1269 4.62677 10.1431 4.67619 10.2118C4.7706 10.343 4.84761 10.3839 5 10.3839C5.15239 10.3839 5.2294 10.343 5.32381 10.2118C5.37332 10.1429 5.37349 10.1332 5.37349 7.19584C5.37349 4.2585 5.37332 4.24873 5.32381 4.17989C5.29648 4.14191 5.24578 4.08887 5.21116 4.06204C5.1314 4.00025 4.93971 3.9831 4.84217 4.02901ZM6.76988 4.02901C6.67222 4.07499 6.57147 4.20267 6.55427 4.30226C6.5466 4.34657 6.54347 5.6788 6.54728 7.26277C6.55417 10.1269 6.55448 10.1431 6.6039 10.2118C6.69831 10.343 6.77532 10.3839 6.92771 10.3839C7.0801 10.3839 7.15711 10.343 7.25152 10.2118C7.30104 10.1429 7.3012 10.1332 7.3012 7.19584C7.3012 4.2585 7.30104 4.24873 7.25152 4.17989C7.22419 4.14191 7.17349 4.08887 7.13887 4.06204C7.05911 4.00025 6.86742 3.9831 6.76988 4.02901Z" fill="black"/>
</svg>
