<svg width="0" height="0" class="hidden">
  <symbol fill="none" xmlns="http://www.w3.org/2000/svg" viewBox="0 0 76 76" id="arrow-top">
    <circle cx="38" cy="38" r="38" fill="white"></circle>
    <path d="M52 45L38.5 31L25 45" stroke="#1B458F" stroke-width="4"></path>
  </symbol>
	 <symbol fill="none" xmlns="http://www.w3.org/2000/svg" viewBox="0 0 16 16" id="insta">
    <path fill-rule="evenodd" clip-rule="evenodd" d="M5.0102 0.0178908C3.97686 0.0611819 3.26641 0.192087 2.66839 0.449425C2.10873 0.690279 1.77641 0.912208 1.36378 1.32066C0.804243 1.87453 0.455567 2.49696 0.236654 3.33279C0.043561 4.07005 0.000473996 4.91889 3.95554e-06 7.99346C-0.000466085 11.017 0.0407721 11.876 0.2218 12.6131C0.673133 14.4508 2.02174 15.6197 4.00287 15.8901C4.57209 15.9678 5.76361 16.0003 8.0372 16C10.1515 15.9998 11.3707 15.9699 11.9194 15.9049C13.0407 15.7721 13.9201 15.3857 14.6103 14.7225C15.3915 13.9719 15.8046 13.0728 15.9559 11.7939C16.0151 11.293 16.0145 4.61757 15.9552 4.14606C15.8348 3.18871 15.5471 2.401 15.0976 1.79758C14.8742 1.4977 14.3995 1.04224 14.1007 0.840953C13.4264 0.386772 12.6161 0.134595 11.5468 0.0461364C11.0428 0.00444056 5.86554 -0.0179244 5.0102 0.0178908ZM11.7889 1.52811C12.6819 1.6602 13.1833 1.88285 13.6651 2.36137C13.9776 2.67169 14.1521 2.94783 14.304 3.37207C14.5622 4.09313 14.5854 4.47468 14.5854 8.0091C14.5854 10.0453 14.574 11.0234 14.5462 11.3539C14.4551 12.4384 14.239 13.0235 13.7295 13.5659C13.2024 14.127 12.5396 14.4069 11.5155 14.5008C10.9608 14.5517 6.37701 14.5766 5.32183 14.5345C4.84524 14.5154 4.34562 14.4846 4.2116 14.466C3.619 14.3837 3.04471 14.1752 2.68961 13.9133C2.46518 13.7479 2.10939 13.3625 1.97627 13.1407C1.71462 12.7047 1.55596 12.0887 1.5041 11.307C1.40987 9.88726 1.44049 5.01257 1.54872 4.20624C1.66103 3.36917 1.91971 2.80735 2.41175 2.33184C2.95274 1.80903 3.66046 1.5546 4.75747 1.48851C4.99296 1.4743 6.59574 1.46623 8.31922 1.47055C10.9924 1.47724 11.5022 1.48569 11.7889 1.52811ZM11.8828 2.86506C11.5271 3.04248 11.36 3.31652 11.3593 3.72378C11.3587 4.01859 11.4291 4.19323 11.6289 4.39261C11.8283 4.59164 12.0036 4.66217 12.2989 4.66217C12.5098 4.66217 12.5778 4.64832 12.7276 4.5749C13.0448 4.41944 13.224 4.14647 13.2478 3.78256C13.2688 3.46075 13.1987 3.27189 12.9754 3.04927C12.7679 2.84229 12.5881 2.76975 12.2827 2.76975C12.1127 2.76975 12.0384 2.78746 11.8828 2.86506ZM7.28685 3.94631C6.46334 4.0947 5.73509 4.48091 5.11887 5.09602C4.30583 5.90757 3.91184 6.85338 3.91184 7.99346C3.91184 8.68033 4.04107 9.24624 4.32807 9.81604C5.20395 11.5549 7.13425 12.4468 9.013 11.9807C9.75037 11.7977 10.3224 11.4793 10.8755 10.9438C11.374 10.4612 11.7095 9.93552 11.9198 9.30721C12.0712 8.85481 12.1265 8.50301 12.1265 7.99346C12.1265 7.48689 12.0712 7.13205 11.9231 6.69C11.7215 6.08806 11.4301 5.61226 10.9766 5.1446C10.3574 4.50599 9.58335 4.09235 8.73032 3.94418C8.38208 3.88369 7.62823 3.88478 7.28685 3.94631ZM8.52798 5.37876C9.96496 5.65418 10.9167 7.06133 10.6405 8.50223C10.4729 9.37665 9.82999 10.1514 9.00914 10.4682C8.60833 10.623 8.37528 10.6601 7.91185 10.6434C7.5831 10.6316 7.45309 10.6124 7.23813 10.5439C6.28708 10.241 5.59637 9.47746 5.40049 8.51245C5.32506 8.14088 5.35442 7.56302 5.46661 7.21147C5.76373 6.2803 6.5498 5.56785 7.48527 5.38179C7.76429 5.32627 8.24693 5.3249 8.52798 5.37876Z" fill="#1B458F"></path>
  </symbol>
	<symbol fill="none" xmlns="http://www.w3.org/2000/svg" viewBox="0 0 8 16" id="facebook">
    <path fill-rule="evenodd" clip-rule="evenodd" d="M5.26272 0.0284933C4.39678 0.170191 3.78853 0.477234 3.28953 1.02451C2.86942 1.48529 2.60727 2.0259 2.45892 2.73733C2.4029 3.00606 2.39574 3.16846 2.38416 4.43426L2.37135 5.83404H1.18568H0V7.2569V8.67979L1.18035 8.68795L2.36071 8.69615L2.36835 12.3481L2.37598 16H3.78928H5.20258V12.3403V8.68051H6.37541C7.02047 8.68051 7.54873 8.67697 7.54933 8.67269C7.62806 8.10302 7.89586 5.8738 7.8875 5.8575C7.88091 5.84458 7.2732 5.83404 6.53705 5.83404H5.19864L5.20874 4.66886C5.21867 3.52927 5.22044 3.49962 5.28997 3.31854C5.43083 2.95172 5.72723 2.73499 6.16975 2.67524C6.29115 2.65885 6.75261 2.64499 7.19522 2.64446L8 2.64349L7.99215 1.36884L7.9843 0.0941811L7.59336 0.0572395C6.95236 -0.00334961 5.5621 -0.020491 5.26272 0.0284933Z" fill="#1B458F"></path>
  </symbol>
	<symbol xmlns="http://www.w3.org/2000/svg" viewBox="0 0 320 512" id="close">
    <path d="M310.6 361.4c12.5 12.5 12.5 32.75 0 45.25C304.4 412.9 296.2 416 288 416s-16.38-3.125-22.62-9.375L160 301.3L54.63 406.6C48.38 412.9 40.19 416 32 416S15.63 412.9 9.375 406.6c-12.5-12.5-12.5-32.75 0-45.25l105.4-105.4L9.375 150.6c-12.5-12.5-12.5-32.75 0-45.25s32.75-12.5 45.25 0L160 210.8l105.4-105.4c12.5-12.5 32.75-12.5 45.25 0s12.5 32.75 0 45.25l-105.4 105.4L310.6 361.4z"></path>
  </symbol>
</svg>