<svg width="0" height="0" class="hidden">
  <symbol fill="none" xmlns="http://www.w3.org/2000/svg" viewBox="0 0 76 76" id="arrow-top">
    <circle cx="38" cy="38" r="38" fill="white"></circle>
    <path d="M52 45L38.5 31L25 45" stroke="#1B458F" stroke-width="4"></path>
  </symbol>
	 <symbol fill="none" xmlns="http://www.w3.org/2000/svg" viewBox="0 0 16 16" id="insta">
    <path fill-rule="evenodd" clip-rule="evenodd" d="M5.0102 0.0178908C3.97686 0.0611819 3.26641 0.192087 2.66839 0.449425C2.10873 0.690279 1.77641 0.912208 1.36378 1.32066C0.804243 1.87453 0.455567 2.49696 0.236654 3.33279C0.043561 4.07005 0.000473996 4.91889 3.95554e-06 7.99346C-0.000466085 11.017 0.0407721 11.876 0.2218 12.6131C0.673133 14.4508 2.02174 15.6197 4.00287 15.8901C4.57209 15.9678 5.76361 16.0003 8.0372 16C10.1515 15.9998 11.3707 15.9699 11.9194 15.9049C13.0407 15.7721 13.9201 15.3857 14.6103 14.7225C15.3915 13.9719 15.8046 13.0728 15.9559 11.7939C16.0151 11.293 16.0145 4.61757 15.9552 4.14606C15.8348 3.18871 15.5471 2.401 15.0976 1.79758C14.8742 1.4977 14.3995 1.04224 14.1007 0.840953C13.4264 0.386772 12.6161 0.134595 11.5468 0.0461364C11.0428 0.00444056 5.86554 -0.0179244 5.0102 0.0178908ZM11.7889 1.52811C12.6819 1.6602 13.1833 1.88285 13.6651 2.36137C13.9776 2.67169 14.1521 2.94783 14.304 3.37207C14.5622 4.09313 14.5854 4.47468 14.5854 8.0091C14.5854 10.0453 14.574 11.0234 14.5462 11.3539C14.4551 12.4384 14.239 13.0235 13.7295 13.5659C13.2024 14.127 12.5396 14.4069 11.5155 14.5008C10.9608 14.5517 6.37701 14.5766 5.32183 14.5345C4.84524 14.5154 4.34562 14.4846 4.2116 14.466C3.619 14.3837 3.04471 14.1752 2.68961 13.9133C2.46518 13.7479 2.10939 13.3625 1.97627 13.1407C1.71462 12.7047 1.55596 12.0887 1.5041 11.307C1.40987 9.88726 1.44049 5.01257 1.54872 4.20624C1.66103 3.36917 1.91971 2.80735 2.41175 2.33184C2.95274 1.80903 3.66046 1.5546 4.75747 1.48851C4.99296 1.4743 6.59574 1.46623 8.31922 1.47055C10.9924 1.47724 11.5022 1.48569 11.7889 1.52811ZM11.8828 2.86506C11.5271 3.04248 11.36 3.31652 11.3593 3.72378C11.3587 4.01859 11.4291 4.19323 11.6289 4.39261C11.8283 4.59164 12.0036 4.66217 12.2989 4.66217C12.5098 4.66217 12.5778 4.64832 12.7276 4.5749C13.0448 4.41944 13.224 4.14647 13.2478 3.78256C13.2688 3.46075 13.1987 3.27189 12.9754 3.04927C12.7679 2.84229 12.5881 2.76975 12.2827 2.76975C12.1127 2.76975 12.0384 2.78746 11.8828 2.86506ZM7.28685 3.94631C6.46334 4.0947 5.73509 4.48091 5.11887 5.09602C4.30583 5.90757 3.91184 6.85338 3.91184 7.99346C3.91184 8.68033 4.04107 9.24624 4.32807 9.81604C5.20395 11.5549 7.13425 12.4468 9.013 11.9807C9.75037 11.7977 10.3224 11.4793 10.8755 10.9438C11.374 10.4612 11.7095 9.93552 11.9198 9.30721C12.0712 8.85481 12.1265 8.50301 12.1265 7.99346C12.1265 7.48689 12.0712 7.13205 11.9231 6.69C11.7215 6.08806 11.4301 5.61226 10.9766 5.1446C10.3574 4.50599 9.58335 4.09235 8.73032 3.94418C8.38208 3.88369 7.62823 3.88478 7.28685 3.94631ZM8.52798 5.37876C9.96496 5.65418 10.9167 7.06133 10.6405 8.50223C10.4729 9.37665 9.82999 10.1514 9.00914 10.4682C8.60833 10.623 8.37528 10.6601 7.91185 10.6434C7.5831 10.6316 7.45309 10.6124 7.23813 10.5439C6.28708 10.241 5.59637 9.47746 5.40049 8.51245C5.32506 8.14088 5.35442 7.56302 5.46661 7.21147C5.76373 6.2803 6.5498 5.56785 7.48527 5.38179C7.76429 5.32627 8.24693 5.3249 8.52798 5.37876Z" fill="#1B458F"></path>
  </symbol>
	<symbol fill="none" xmlns="http://www.w3.org/2000/svg" viewBox="0 0 8 16" id="facebook">
    <path fill-rule="evenodd" clip-rule="evenodd" d="M5.26272 0.0284933C4.39678 0.170191 3.78853 0.477234 3.28953 1.02451C2.86942 1.48529 2.60727 2.0259 2.45892 2.73733C2.4029 3.00606 2.39574 3.16846 2.38416 4.43426L2.37135 5.83404H1.18568H0V7.2569V8.67979L1.18035 8.68795L2.36071 8.69615L2.36835 12.3481L2.37598 16H3.78928H5.20258V12.3403V8.68051H6.37541C7.02047 8.68051 7.54873 8.67697 7.54933 8.67269C7.62806 8.10302 7.89586 5.8738 7.8875 5.8575C7.88091 5.84458 7.2732 5.83404 6.53705 5.83404H5.19864L5.20874 4.66886C5.21867 3.52927 5.22044 3.49962 5.28997 3.31854C5.43083 2.95172 5.72723 2.73499 6.16975 2.67524C6.29115 2.65885 6.75261 2.64499 7.19522 2.64446L8 2.64349L7.99215 1.36884L7.9843 0.0941811L7.59336 0.0572395C6.95236 -0.00334961 5.5621 -0.020491 5.26272 0.0284933Z" fill="#1B458F"></path>
  </symbol>
	<symbol xmlns="http://www.w3.org/2000/svg" viewBox="0 0 320 512" id="close">
    <path d="M310.6 361.4c12.5 12.5 12.5 32.75 0 45.25C304.4 412.9 296.2 416 288 416s-16.38-3.125-22.62-9.375L160 301.3L54.63 406.6C48.38 412.9 40.19 416 32 416S15.63 412.9 9.375 406.6c-12.5-12.5-12.5-32.75 0-45.25l105.4-105.4L9.375 150.6c-12.5-12.5-12.5-32.75 0-45.25s32.75-12.5 45.25 0L160 210.8l105.4-105.4c12.5-12.5 32.75-12.5 45.25 0s12.5 32.75 0 45.25l-105.4 105.4L310.6 361.4z"></path>
  </symbol>
	<symbol xmlns="http://www.w3.org/2000/svg" viewBox="0 0 71 72" id="icon-badge">
    <path d="M30.8264 2.97105C33.3596 0.276622 37.6404 0.276622 40.1736 2.97105V2.97105C41.9045 4.81218 44.5551 5.4655 46.9434 4.63967V4.63967C50.4386 3.43111 54.2291 5.42048 55.2199 8.98351V8.98351C55.897 11.4182 57.9404 13.2284 60.4389 13.6071V13.6071C64.0954 14.1613 66.5271 17.6843 65.7487 21.2997V21.2997C65.2167 23.7701 66.1848 26.3226 68.2211 27.819V27.819C71.2013 30.009 71.7173 34.2585 69.3478 37.098V37.098C67.7288 39.0383 67.3997 41.7483 68.5074 44.0197V44.0197C70.1284 47.3437 68.6105 51.3463 65.1928 52.7594V52.7594C62.8575 53.725 61.3068 55.9717 61.232 58.4976V58.4976C61.1226 62.1943 57.9184 65.0329 54.2356 64.6959V64.6959C51.7191 64.4657 49.3018 65.7343 48.0618 67.9362V67.9362C46.247 71.1586 42.0906 72.183 38.9862 70.1731V70.1731C36.865 68.7997 34.135 68.7997 32.0138 70.1731V70.1731C28.9094 72.183 24.753 71.1586 22.9382 67.9362V67.9362C21.6982 65.7343 19.2809 64.4657 16.7644 64.6959V64.6959C13.0816 65.0329 9.87736 62.1943 9.76798 58.4976V58.4976C9.69323 55.9717 8.14245 53.725 5.80716 52.7594V52.7594C2.38954 51.3463 0.871562 47.3437 2.49262 44.0197V44.0197C3.6003 41.7483 3.27124 39.0383 1.65218 37.098V37.098C-0.717263 34.2585 -0.201275 30.009 2.77885 27.819V27.819C4.8152 26.3226 5.78325 23.7701 5.25132 21.2997V21.2997C4.47287 17.6843 6.90462 14.1613 10.5611 13.6071V13.6071C13.0596 13.2284 15.103 11.4182 15.7801 8.98351V8.98351C16.7709 5.42048 20.5614 3.43111 24.0566 4.63967V4.63967C26.4449 5.4655 29.0955 4.81218 30.8264 2.97105V2.97105Z" ></path>
  </symbol>
	<symbol fill="none" xmlns="http://www.w3.org/2000/svg" viewBox="0 0 14 24" id="icon-next">
    <path d="M13.0607 13.0607C13.6464 12.4749 13.6464 11.5251 13.0607 10.9393L3.51472 1.3934C2.92893 0.807611 1.97919 0.807611 1.3934 1.3934C0.807611 1.97919 0.807611 2.92893 1.3934 3.51472L9.87868 12L1.3934 20.4853C0.807611 21.0711 0.807611 22.0208 1.3934 22.6066C1.97919 23.1924 2.92893 23.1924 3.51472 22.6066L13.0607 13.0607ZM11 13.5H12V10.5H11V13.5Z" fill="#1B458F"></path>
  </symbol>
	<symbol fill="none" xmlns="http://www.w3.org/2000/svg" viewBox="0 0 18 16" id="mini-cart">
    <path opacity="0.6" fill-rule="evenodd" clip-rule="evenodd" d="M5.60545 0.044961C5.54581 0.0709049 5.46669 0.130973 5.42963 0.178437C5.39261 0.225936 4.79266 1.34124 4.09644 2.65694L2.83059 5.04911L1.83858 5.04978C0.687815 5.05055 0.582504 5.07123 0.30166 5.35163C0.0355143 5.61735 0 5.76726 0 6.6252C0 7.54387 0.0258094 7.65193 0.312174 7.93194C0.471144 8.08739 0.556976 8.1411 0.728569 8.1924C0.888102 8.24011 0.94946 8.2762 0.962752 8.33012C0.972633 8.37028 1.37078 10.0224 1.84748 12.0016C2.32418 13.9807 2.73467 15.649 2.75963 15.7089C2.7846 15.7688 2.85826 15.8557 2.92331 15.902L3.04156 15.9862L8.96052 15.9953C15.4942 16.0053 15.028 16.0206 15.1922 15.7904C15.2411 15.7219 15.5413 14.5389 16.1598 11.9784C16.653 9.93653 17.0599 8.26314 17.064 8.2598C17.0681 8.25646 17.1648 8.22698 17.279 8.19426C17.4467 8.14619 17.5255 8.09585 17.6896 7.93201C17.9874 7.63469 18.0111 7.52965 17.9969 6.56892C17.9841 5.69799 17.9594 5.59948 17.6876 5.33611C17.4151 5.07214 17.3 5.05048 16.1647 5.0501L15.1727 5.04971L13.8892 2.62411C12.5047 0.0074672 12.5242 0.0380801 12.2222 0.00409676C11.9077 -0.0312908 11.6011 0.276244 11.6502 0.577952C11.6611 0.645041 12.1851 1.67114 12.8148 2.85817C13.4444 4.0452 13.9596 5.02405 13.9596 5.03342C13.9596 5.04279 11.7285 5.05045 9.00163 5.05045C6.27477 5.05045 4.0437 5.041 4.0437 5.02949C4.0437 5.01794 4.56073 4.03453 5.19267 2.84409C6.23285 0.884644 6.34171 0.663858 6.34221 0.512758C6.34347 0.141891 5.95292 -0.106068 5.60545 0.044961ZM16.9484 6.6478V7.19196H9.00163H1.05488V6.6478V6.10365H9.00163H16.9484V6.6478ZM4.67663 8.26598C4.67663 8.30684 4.99274 10.8277 5.0119 10.9396L5.03145 11.0537H3.87186C2.79803 11.0537 2.7109 11.0492 2.69363 10.9923C2.66663 10.9033 2.03943 8.28845 2.03943 8.26493C2.03943 8.25404 2.6328 8.24516 3.35803 8.24516C4.08326 8.24516 4.67663 8.25453 4.67663 8.26598ZM8.47419 9.64943V11.0537H7.27866C6.43725 11.0537 6.08313 11.0423 6.08313 11.0153C6.08313 10.9628 5.77201 8.46226 5.75049 8.3417L5.73326 8.24516H7.10372H8.47419V9.64943ZM12.2528 8.3417C12.2312 8.46226 11.9201 10.9628 11.9201 11.0153C11.9201 11.0423 11.566 11.0537 10.7246 11.0537H9.52906V9.64943V8.24516H10.8995H12.27L12.2528 8.3417ZM15.9638 8.26601C15.9638 8.28915 15.3382 10.8949 15.3093 10.9923C15.2924 11.0492 15.2054 11.0537 14.1314 11.0537H12.9718L12.9913 10.9396C13.0105 10.8277 13.3266 8.30684 13.3266 8.26598C13.3266 8.25453 13.92 8.24516 14.6452 8.24516C15.3705 8.24516 15.9638 8.25453 15.9638 8.26601ZM5.15181 12.1508C5.16053 12.1749 5.23891 12.7713 5.32597 13.4761C5.41304 14.1808 5.49212 14.8012 5.50165 14.8546L5.51902 14.9517L4.57975 14.9423L3.64052 14.933L3.31696 13.5989C3.13904 12.8652 2.99237 12.2294 2.99111 12.1859L2.98882 12.1069H4.06237C4.88932 12.1069 5.13958 12.117 5.15181 12.1508ZM8.47419 13.5287V14.9506H7.5248C7.00263 14.9506 6.57541 14.9412 6.57541 14.9297C6.57541 14.8941 6.26021 12.3778 6.2383 12.2386L6.21759 12.1069H7.34589H8.47419V13.5287ZM11.7795 12.1277C11.7795 12.1633 11.4643 14.6797 11.4424 14.8189L11.4217 14.9506H10.4754H9.52906V13.5287V12.1069H10.6543C11.2731 12.1069 11.7795 12.1163 11.7795 12.1277ZM15.0138 12.1683C15.0134 12.2021 14.8659 12.838 14.6861 13.5814L14.3592 14.933L13.4217 14.9423L12.4842 14.9517L12.5016 14.8546C12.5111 14.8012 12.5902 14.1808 12.6773 13.4761C12.7643 12.7713 12.8427 12.1749 12.8514 12.1508C12.8637 12.117 13.1139 12.1069 13.9409 12.1069C14.9401 12.1069 15.0144 12.1112 15.0138 12.1683Z" fill="white"></path>
  </symbol>
	<symbol fill="none" xmlns="http://www.w3.org/2000/svg" viewBox="0 0 10 12" id="trash">
    <path fill-rule="evenodd" clip-rule="evenodd" d="M3.3012 0.029498C3.21246 0.0707559 3.13214 0.158848 3.098 0.252391C3.08337 0.292448 3.07229 0.51044 3.07229 0.758162V1.19354L1.65236 1.20037C0.26106 1.20705 0.231084 1.20825 0.165879 1.25876C0.129301 1.28711 0.077012 1.34137 0.0496868 1.37936C0.00209639 1.44549 0 1.47995 0 2.19489C0 2.90982 0.00209639 2.94428 0.0496868 3.01042C0.157422 3.16017 0.21106 3.1819 0.495663 3.19102L0.759036 3.1995L0.759446 6.87923C0.759928 10.9782 0.750675 10.7453 0.927542 11.1101C1.14101 11.5503 1.52602 11.8598 1.9861 11.961C2.2268 12.014 7.77834 12.0125 8.0241 11.9595C8.53624 11.8488 8.99655 11.4139 9.17533 10.8715L9.22892 10.709L9.2354 6.95424L9.24188 3.19948L9.5048 3.19102C9.78889 3.1819 9.8426 3.16012 9.95031 3.01042C9.9979 2.94428 10 2.90982 10 2.19489C10 1.47995 9.9979 1.44549 9.95031 1.37936C9.92299 1.34137 9.8707 1.28711 9.83412 1.25876C9.76892 1.20825 9.73894 1.20705 8.34911 1.20037L6.93063 1.19354L6.92313 0.72078C6.91496 0.203556 6.90937 0.182202 6.74976 0.0585286C6.68426 0.00774393 6.65798 0.00689376 5.02836 0.00141772C3.68571 -0.00305814 3.35986 0.00221785 3.3012 0.029498ZM6.15663 0.994657V1.19469H5H3.84337V0.994657V0.794619H5H6.15663V0.994657ZM9.24096 2.19489V2.39492H5H0.759036V2.19489V1.99485H5H9.24096V2.19489ZM8.46424 6.90203L8.45783 10.609L8.39289 10.7367C8.29672 10.9259 8.2241 11.0038 8.05545 11.0987L7.90361 11.1841H5H2.09639L1.97333 11.1167C1.79099 11.0169 1.71595 10.9415 1.62451 10.7665L1.54217 10.609L1.53576 6.90203L1.52935 3.19508H5H8.47065L8.46424 6.90203ZM2.91446 4.02901C2.8168 4.07499 2.71605 4.20267 2.69884 4.30226C2.69118 4.34657 2.68805 5.6788 2.69186 7.26277C2.69875 10.1269 2.69906 10.1431 2.74848 10.2118C2.84289 10.343 2.9199 10.3839 3.07229 10.3839C3.22467 10.3839 3.30169 10.343 3.3961 10.2118C3.44561 10.1429 3.44578 10.1332 3.44578 7.19584C3.44578 4.2585 3.44561 4.24873 3.3961 4.17989C3.36877 4.14191 3.31807 4.08887 3.28345 4.06204C3.20369 4.00025 3.012 3.9831 2.91446 4.02901ZM4.84217 4.02901C4.74451 4.07499 4.64376 4.20267 4.62655 4.30226C4.61889 4.34657 4.61576 5.6788 4.61957 7.26277C4.62646 10.1269 4.62677 10.1431 4.67619 10.2118C4.7706 10.343 4.84761 10.3839 5 10.3839C5.15239 10.3839 5.2294 10.343 5.32381 10.2118C5.37332 10.1429 5.37349 10.1332 5.37349 7.19584C5.37349 4.2585 5.37332 4.24873 5.32381 4.17989C5.29648 4.14191 5.24578 4.08887 5.21116 4.06204C5.1314 4.00025 4.93971 3.9831 4.84217 4.02901ZM6.76988 4.02901C6.67222 4.07499 6.57147 4.20267 6.55427 4.30226C6.5466 4.34657 6.54347 5.6788 6.54728 7.26277C6.55417 10.1269 6.55448 10.1431 6.6039 10.2118C6.69831 10.343 6.77532 10.3839 6.92771 10.3839C7.0801 10.3839 7.15711 10.343 7.25152 10.2118C7.30104 10.1429 7.3012 10.1332 7.3012 7.19584C7.3012 4.2585 7.30104 4.24873 7.25152 4.17989C7.22419 4.14191 7.17349 4.08887 7.13887 4.06204C7.05911 4.00025 6.86742 3.9831 6.76988 4.02901Z" fill="black"></path>
  </symbol>
</svg>